<svg xmlns="http://www.w3.org/2000/svg" width="355" height="355" viewBox="0 0 355 355"><g transform="translate(-996 -460)"><rect width="355" height="355" rx="177.5" transform="translate(996 460)" fill="#fff" opacity="0.135"/><path d="M1251.567,610.671a18.13,18.13,0,0,0-18.107-17.965h-81.208l-81.184.236a18.13,18.13,0,0,0-17.965,18.2,2.988,2.988,0,0,0,0,.472l15.769,95.821a18.13,18.13,0,0,0,18.107,17.849h162.368a18.13,18.13,0,0,0,18.107-18.107,3,3,0,0,0,0-.472l-15.888-96.033Z" fill="#fff"/><path d="M1275.905,569.666H1196.09L1180.3,550.78a2.951,2.951,0,0,0-2.361-1.062h-64.4a18.13,18.13,0,0,0-18.108,17.847l-2.786,16.9h6l134.82-.024a26.6,26.6,0,0,1,26.466,25.428l10.788,65.462,2.668,16.147a17.989,17.989,0,0,0,1.558-7.082l18.956-96.033a2.933,2.933,0,0,0,0-.567,18.131,18.131,0,0,0-17.989-18.13Z" fill="#8b8b8b"/></g></svg>